<?xml version="1.0" encoding="utf-8"?>
<!-- Generator: Adobe Illustrator 16.0.0, SVG Export Plug-In . SVG Version: 6.00 Build 0)  -->
<!DOCTYPE svg PUBLIC "-//W3C//DTD SVG 1.1//EN" "http://www.w3.org/Graphics/SVG/1.1/DTD/svg11.dtd">
<svg version="1.1" id="Group_23" xmlns="http://www.w3.org/2000/svg" xmlns:xlink="http://www.w3.org/1999/xlink" x="0px" y="0px"
	 width="1920px" height="668px" viewBox="0 160.5 1920 668" enable-background="new 0 160.5 1920 668" xml:space="preserve">
<circle fill="#806A68" cx="265.632" cy="500" r="265.632"/>
<circle fill="#664E4A" cx="265.632" cy="500" r="146.551"/>
<g>
	<path fill="#F9E2CF" d="M133.942,338.683c1.147,4.418,1.993,7.44,2.537,9.065l2.777,7.936l2.935,8.842
		c0.183,0.492,1.127,3.062,2.836,7.711c0.709,1.91,1.263,3.506,1.66,4.79c0.254,0.756,0.436,1.286,0.544,1.587
		c0.497,1.262,0.528,2.104,0.095,2.527c-0.452,0.442-1.34,0.4-2.665-0.128c-0.243-0.097-1.021-0.359-2.333-0.787l-1.743-0.639
		l-33.365-12.673l13.154,14.775c1.078,1.217,3.318,3.567,6.722,7.051c3.274,3.351,6.268,4.053,8.981,2.108
		c1.344-0.948,2.198-1.235,2.563-0.862c0.419,0.429,0.354,0.914-0.197,1.452c-0.361,0.353-0.73,0.677-1.109,0.973
		c-2.313,1.888-4.049,3.399-5.208,4.531c-1.387,1.354-2.632,2.74-3.737,4.154c-0.325,0.428-0.591,0.744-0.799,0.948
		c-0.57,0.557-1.055,0.63-1.455,0.222c-0.309-0.316-0.28-0.744,0.085-1.284c1.073-1.682,1.411-3.277,1.014-4.789
		c-0.397-1.511-1.684-3.494-3.859-5.949l-7.698-8.677c-5.578-6.279-9.14-10.21-10.685-11.792c-3.313-3.391-6.213-5.463-8.7-6.218
		c-2.486-0.754-4.962-0.299-7.429,1.366c-0.662,0.465-1.175,0.511-1.539,0.138c-0.4-0.41-0.363-0.847,0.113-1.312
		c0.171-0.167,0.503-0.455,0.998-0.863c0.303-0.222,0.968-0.835,1.996-1.839c1.56-1.524,2.531-2.51,2.912-2.958
		c0.381-0.484,0.706-0.856,0.973-1.117c0.817-0.799,2.088-0.869,3.812-0.209l0.956,0.35l36.983,14.041l4.33,1.519
		c0.692,0.292,1.086,0.39,1.182,0.296c0.114-0.111,0.08-0.431-0.103-0.961l-0.412-1.106l-0.302-0.822l-14.686-41.853
		c-0.31-0.888-0.464-1.474-0.461-1.756c0.003-0.282,0.186-0.6,0.547-0.954c0.152-0.149,0.608-0.52,1.367-1.113
		c0.266-0.222,0.589-0.52,0.97-0.892c1.199-1.171,2.123-2.148,2.771-2.931c0.324-0.354,0.582-0.642,0.772-0.866
		c0.362-0.391,0.734-0.391,1.116,0c0.345,0.353,0.373,0.763,0.083,1.228l-0.92,1.514c-0.747,1.178-0.846,2.438-0.295,3.782
		c0.551,1.344,1.897,3.112,4.04,5.305l6.906,6.725l15.716,14.998l3.664,3.464c1.416,1.449,2.698,2.228,3.846,2.336
		c1.147,0.108,2.528-0.421,4.142-1.588c1.154-0.837,1.905-1.078,2.25-0.725c0.364,0.373,0.195,0.903-0.508,1.589
		c-0.209,0.204-0.456,0.427-0.74,0.668l-2.446,1.943c-0.815,0.648-1.65,1.389-2.505,2.225c-0.589,0.576-1.479,1.527-2.668,2.855
		c-1.872,2.036-2.96,3.203-3.264,3.5c-0.551,0.539-0.99,0.64-1.316,0.306c-0.291-0.297-0.261-0.743,0.088-1.338
		c0.825-1.402,1.093-2.632,0.803-3.69c-0.29-1.058-1.272-2.445-2.948-4.16l-4.667-4.547L133.942,338.683z"/>
	<path fill="#F9E2CF" d="M197.383,338.138c1.273,2.818,2.283,4.438,3.029,4.862s2.26,0.251,4.542-0.517
		c0.784-0.268,1.272-0.189,1.465,0.237c0.257,0.569-0.04,1.046-0.89,1.431c-0.267,0.121-0.927,0.345-1.978,0.674
		c-0.64,0.202-1.56,0.53-2.759,0.984l-2.946,1.156l-2.808,1.366c-1.798,0.813-2.983,1.396-3.554,1.752
		c-0.656,0.426-1.094,0.689-1.312,0.788c-0.56,0.252-0.93,0.178-1.111-0.225c-0.214-0.473,0.052-0.95,0.799-1.43
		c1.906-1.212,2.953-2.336,3.142-3.372c0.189-1.036-0.304-2.854-1.478-5.453l-0.672-1.583l-4.906-10.858
		c-0.703-1.555-1.328-2.647-1.875-3.277s-1.548-1.421-3-2.374l-17.444-11.554l-2.143-1.445c-1.22-0.824-2.634-1.303-4.243-1.439
		c-1.609-0.135-3.045,0.082-4.306,0.651c-0.703,0.318-1.154,0.259-1.351-0.178c-0.241-0.533,0.014-0.97,0.764-1.309
		c0.604-0.273,1.24-0.512,1.905-0.717c1.658-0.524,3.346-1.174,5.064-1.951c3.558-1.608,5.809-2.691,6.752-3.249
		c1.015-0.59,1.632-0.935,1.85-1.033c0.702-0.317,1.16-0.239,1.374,0.235c0.161,0.355-0.001,0.742-0.484,1.159
		c-1.406,1.22-1.845,2.414-1.317,3.58c0.285,0.631,1.336,1.561,3.154,2.787l1.815,1.286l13.082,8.57l0.805,0.514
		c0.373,0.242,0.67,0.312,0.889,0.213c0.266-0.12,0.443-0.404,0.532-0.853l0.116-0.709l1.65-10.366l0.498-3.636
		c0.479-3.452,0.51-5.639,0.094-6.559c-0.733-1.622-2.792-2.106-6.175-1.451c-0.672,0.128-1.089-0.019-1.251-0.442
		c-0.162-0.423,0.024-0.755,0.559-0.997c0.365-0.165,1.039-0.39,2.022-0.675c0.754-0.208,2.481-0.922,5.18-2.142
		c2.479-1.12,4.043-1.871,4.691-2.251c0.88-0.514,1.497-0.866,1.851-1.055c0.634-0.345,1.059-0.28,1.273,0.195
		c0.171,0.378-0.004,0.8-0.524,1.263c-1.84,1.681-3.021,3.852-3.54,6.514l-0.768,4.603l-2.88,17.184l-0.313,1.634
		c-0.329,1.729-0.246,3.139,0.248,4.231L197.383,338.138z"/>
	<path fill="#F9E2CF" d="M295.572,283.381l1.014,9.613l0.092,1.001l-0.131,0.396c-0.14,0.235-0.343,0.364-0.61,0.382
		c-0.32,0.018-0.783-0.553-1.391-1.711c-4.74-8.839-11.372-13.377-19.893-13.611c-6.791-0.187-12.2,1.752-16.229,5.814
		s-6.144,9.707-6.342,16.932c-0.229,8.314,1.761,15.168,5.97,20.561s9.735,8.183,16.579,8.371c3.995,0.11,7.952-0.849,11.871-2.877
		c3.92-2.029,6.667-4.543,8.243-7.545c0.73-1.395,1.282-2.102,1.656-2.118c0.426-0.015,0.632,0.245,0.617,0.78l-0.052,0.44
		l-0.184,0.878l-1.052,4.868l-0.18,0.718c-0.125,0.689-0.771,1.391-1.935,2.104c-6.253,3.742-13.078,5.511-20.474,5.308
		c-8.567-0.236-15.401-2.964-20.502-8.187c-5.102-5.223-7.538-11.981-7.31-20.276c0.229-8.294,3.131-15.112,8.709-20.453
		c5.578-5.34,12.463-7.898,20.657-7.673c5.613,0.154,10.739,1.56,15.378,4.217l1.573,0.882l0.631,0.297l0.672,0.258
		c0.133,0.004,0.335-0.097,0.608-0.303c0.598-0.409,1.003-0.611,1.216-0.605C295.201,281.853,295.466,282.366,295.572,283.381z"/>
	<path fill="#F9E2CF" d="M337.189,325.734l-13.512-5.125c-1.842-0.698-3.043-0.982-3.604-0.853c-0.561,0.129-1.537,0.9-2.926,2.312
		l-4.534,4.57c-2.06,2.099-3.322,3.76-3.785,4.981c-0.445,1.172-0.474,2.131-0.088,2.876c0.386,0.746,1.367,1.631,2.942,2.656
		c0.691,0.429,0.966,0.867,0.825,1.313c-0.132,0.422-0.557,0.497-1.277,0.224c-0.273-0.104-0.69-0.278-1.25-0.522l-3.495-1.566
		c-1.17-0.508-2.538-1.059-4.101-1.652c-0.72-0.273-1.285-0.467-1.695-0.583c-1.319-0.342-2.04-0.535-2.165-0.582
		c-0.67-0.254-0.918-0.611-0.744-1.071c0.155-0.408,0.468-0.596,0.939-0.563l1.537,0.112c0.554,0.04,1.455-0.309,2.703-1.047
		c1.247-0.737,2.362-1.575,3.344-2.513l2.018-2.055l35.352-35.344c0.606-0.624,1.109-0.861,1.507-0.71
		c0.398,0.151,0.597,0.64,0.597,1.467l0.454,47.207l0.056,2.33c0.025,3.459,0.285,5.703,0.777,6.73
		c0.492,1.027,1.84,2.202,4.044,3.522c0.716,0.438,0.974,0.884,0.774,1.335c-0.182,0.404-0.608,0.478-1.28,0.223
		c-0.224-0.085-0.688-0.29-1.39-0.613c-1.247-0.616-3.525-1.55-6.834-2.806c-3.459-1.312-5.652-2.059-6.58-2.24
		c-0.56-0.099-0.965-0.195-1.213-0.29c-0.647-0.246-0.874-0.624-0.681-1.133c0.147-0.388,0.555-0.526,1.224-0.411l1.256,0.177
		c1.338,0.223,2.283-0.389,2.831-1.836c0.501-1.321,0.74-4.24,0.716-8.755l0.007-5.646c-0.002-1.569-0.113-2.517-0.331-2.842
		S338.583,326.262,337.189,325.734z M339.917,319.894l-0.254-17.004l-0.001-0.897c0.003-0.909-0.165-1.443-0.503-1.6
		c-0.165-0.09-0.454,0.07-0.866,0.483l-13.409,13.402c-0.588,0.574-0.924,0.973-1.009,1.197c-0.245,0.647,0.204,1.188,1.349,1.622
		l0.994,0.419l11.273,4.276c1.244,0.472,1.984,0.397,2.22-0.226c0.066-0.174,0.112-0.484,0.139-0.929L339.917,319.894z"/>
	<path fill="#F9E2CF" d="M392.701,325.583l-9.604,12.521l-0.429,0.625l-0.63,0.822c-0.353,0.634,0.029,1.378,1.143,2.233
		l2.665,2.144l1.065,0.767l3.771,2.792c1.934,1.483,3.566,2.274,4.895,2.371c1.328,0.097,2.651-0.474,3.968-1.711
		c0.476-0.44,0.887-0.527,1.234-0.261c0.411,0.315,0.345,0.783-0.198,1.403l-2.589,2.982c-0.328,0.384-0.832,1.019-1.51,1.903
		c-1.891,2.465-3.052,4.066-3.484,4.805c-0.265,0.433-0.47,0.744-0.616,0.934c-0.388,0.505-0.777,0.608-1.167,0.309
		c-0.412-0.316-0.337-1.081,0.226-2.292c0.605-1.313,0.915-2.283,0.929-2.91c0.013-0.626-0.263-1.291-0.827-1.992
		c-1.134-1.44-3.067-3.208-5.801-5.305c-2.524-1.936-4.2-3.136-5.028-3.603c-0.828-0.466-1.43-0.541-1.807-0.223
		c-0.415,0.322-0.955,0.918-1.623,1.788l-9.056,11.808c-1.286,1.676-1.868,3.353-1.746,5.031s0.933,3.091,2.432,4.241
		c0.718,0.551,0.929,1.041,0.634,1.469c-0.322,0.506-0.821,0.5-1.498-0.019c-0.466-0.357-1.075-0.899-1.829-1.626
		c-0.626-0.629-1.627-1.472-3.003-2.527l-2.163-1.715l-2.468-1.843c-0.53-0.406-1.281-0.916-2.256-1.529
		c-0.773-0.526-1.337-0.908-1.692-1.146c-0.629-0.45-0.794-0.871-0.494-1.263c0.252-0.33,0.761-0.315,1.527,0.042
		c1.579,0.741,2.935,0.875,4.07,0.401c1.134-0.474,2.497-1.747,4.087-3.82l21.924-28.584c1.541-2.01,2.397-3.805,2.571-5.386
		c0.128-1.043,0.037-1.885-0.275-2.528c-0.312-0.643-1.051-1.495-2.215-2.556c-0.475-0.43-0.597-0.818-0.364-1.165
		c0.369-0.569,0.997-0.513,1.884,0.167c0.274,0.21,0.888,0.765,1.842,1.665c1.734,1.631,4.839,4.164,9.316,7.598
		c3.991,3.062,6.582,4.998,7.771,5.809l4.573,3.155c1.965,1.374,3.262,2.218,3.893,2.533c0.465,0.223,0.847,0.448,1.143,0.675
		c0.464,0.356,0.51,0.778,0.136,1.265c-0.195,0.254-0.517,0.564-0.963,0.928c-1.416,1.102-3.009,2.809-4.781,5.119
		c-0.748,0.975-1.403,1.247-1.964,0.816c-0.324-0.249-0.306-0.653,0.056-1.214c0.438-0.703,0.833-1.457,1.184-2.262
		c0.552-1.287,0.74-2.241,0.565-2.862c-0.175-0.621-0.919-1.536-2.232-2.744l-3.433-3.237c-1.098-1.009-2.551-2.208-4.36-3.596
		c-2.357-1.808-3.937-2.776-4.739-2.906S393.671,324.319,392.701,325.583z"/>
	<path fill="#F9E2CF" d="M432.804,363.988l-12.868,9.687c-0.982,0.739-1.506,1.275-1.573,1.609
		c-0.067,0.333,0.244,0.957,0.933,1.871l3.698,4.912c1.681,2.233,3.137,3.901,4.369,5.006c1.098,0.973,1.966,1.484,2.605,1.537
		c0.639,0.052,1.764-0.312,3.375-1.092c0.613-0.291,1.073-0.211,1.379,0.239c0.29,0.429,0.159,0.852-0.393,1.267
		c-0.148,0.112-0.391,0.275-0.727,0.491c-2.2,1.36-4.148,2.679-5.845,3.956c-1.293,0.974-2.529,2.004-3.706,3.089
		c-0.392,0.362-0.684,0.615-0.875,0.758c-0.53,0.399-0.951,0.392-1.262-0.021c-0.344-0.457-0.315-0.905,0.088-1.344l0.749-0.863
		c1.232-1.327,1.817-2.565,1.752-3.713c-0.065-1.148-0.784-2.634-2.158-4.458l-5.295-7.034c-0.783-1.04-1.413-1.655-1.889-1.844
		c-0.477-0.19-1.035-0.044-1.674,0.437l-1.03,0.825l-11.758,8.852c-1.811,1.363-2.696,2.536-2.655,3.521
		c0.04,0.984,1.051,2.792,3.034,5.425c6.281,8.344,12.199,12.289,17.753,11.833c0.542-0.032,0.914,0.063,1.115,0.287
		c0.316,0.376,0.189,0.78-0.383,1.211c-1.377,1.037-3.604,1.497-6.679,1.38c-3.697-0.148-6.618-1.647-8.763-4.496
		c-0.464-0.617-1.046-1.479-1.745-2.584c-2.675-4.35-5.013-7.853-7.013-10.511c-2.801-3.721-4.906-6.251-6.313-7.59
		c-0.757-0.696-1.248-1.193-1.472-1.49c-0.513-0.681-0.54-1.193-0.082-1.537c0.354-0.267,0.811-0.178,1.373,0.265l1.264,0.948
		c1.578,1.21,3.646,0.853,6.201-1.071l2.1-1.531l26.992-20.32c3.044-2.292,4.842-4.17,5.393-5.634
		c0.55-1.463,0.096-3.163-1.36-5.097c-0.465-0.617-0.499-1.074-0.104-1.372c0.583-0.438,1.234-0.18,1.955,0.777
		c0.4,0.531,0.883,1.284,1.449,2.257c1.949,3.297,4.532,7.082,7.75,11.356c1.953,2.594,3.724,4.858,5.313,6.793l3.633,4.361
		c0.987,1.223,1.605,1.956,1.856,2.2c0.517,0.511,0.88,0.903,1.088,1.18c0.528,0.702,0.485,1.284-0.129,1.746
		c-0.191,0.144-0.458,0.295-0.803,0.455s-1.256,0.712-2.734,1.659l-1.971,1.284c-1.311,0.816-2.16,1.287-2.549,1.409
		c-0.389,0.123-0.732,0.008-1.031-0.344c-0.332-0.396-0.167-0.842,0.492-1.338l0.83-0.625c0.68-0.512,1.232-1.127,1.658-1.847
		c0.653-1.124,0.676-2.421,0.068-3.892c-0.607-1.471-2.15-3.852-4.626-7.141l-3.763-4.999c-0.991-1.316-1.795-2.041-2.414-2.173
		C434.81,362.777,433.936,363.136,432.804,363.988z"/>
</g>
<text transform="matrix(0.6744 -0.7384 0.7384 0.6744 -601.8252 412.8738)" fill="#F9E2CF" font-family="'GoudyOldStyleT-Regular'" font-size="83.4737">M</text>
<text transform="matrix(0.6744 -0.7384 0.7384 0.6744 -552.4209 361.6501)" fill="#F9E2CF" font-family="'GoudyOldStyleT-Regular'" font-size="83.4737">Y</text>
<text transform="matrix(0.6744 -0.7384 0.7384 0.6744 -507.2734 340.2317)" fill="#F9E2CF" font-family="'GoudyOldStyleT-Regular'" font-size="83.4737"> </text>
<text transform="matrix(0.6744 -0.7384 0.7384 0.6744 -486.4854 332.5095)" fill="#F9E2CF" font-family="'GoudyOldStyleT-Regular'" font-size="83.4737">C</text>
<text transform="matrix(0.6744 -0.7384 0.7384 0.6744 -427.2871 331.8337)" fill="#F9E2CF" font-family="'GoudyOldStyleT-Regular'" font-size="83.4737">A</text>
<text transform="matrix(0.6744 -0.7384 0.7384 0.6744 -374.5947 350.6589)" fill="#F9E2CF" font-family="'GoudyOldStyleT-Regular'" font-size="83.4737">F</text>
<text transform="matrix(0.6744 -0.7384 0.7384 0.6744 -338.7881 376.0061)" fill="#F9E2CF" font-family="'GoudyOldStyleT-Regular'" font-size="83.4737">E</text>
<path id="Path_22_1_" fill="#F9E2CF" d="M265.623,262.5c131.167,0,237.5,106.331,237.5,237.5
	c0,131.166-106.332,237.498-237.5,237.498S28.123,631.166,28.123,500l0,0c-0.056-131.112,106.186-237.444,237.298-237.5
	C265.488,262.5,265.555,262.5,265.623,262.5 M265.623,250.003C127.553,250.008,15.63,361.94,15.635,500.009
	C15.64,638.077,127.572,750,265.641,749.995C403.707,749.99,515.629,638.066,515.629,500
	C515.441,362.004,403.618,250.185,265.623,250.003z"/>
<path id="Path_23_1_" fill="#F9E2CF" d="M265.623,359.375c77.665,0,140.625,62.96,140.625,140.625
	c0,77.663-62.96,140.623-140.625,140.623S124.998,577.663,124.998,500C125.114,422.383,188.006,359.49,265.623,359.375
	 M265.623,346.878c-84.566,0.005-153.117,68.563-153.112,153.131c0.005,84.565,68.564,153.116,153.131,153.111
	c84.563-0.005,153.112-68.559,153.112-153.121C418.617,415.487,350.136,347.01,265.623,346.878z"/>
<g>
	<path id="Path_13_2_" fill="#F9E2CF" d="M340.668,507.607c0,0,42.405-20.283,46.708,8.606
		c4.304,28.891-69.445,54.081-69.445,54.081"/>
	<path id="Path_13_3_" fill="#664E4A" d="M345.548,520.031c0,0,18.471-8.573,20.345,3.639c1.875,12.212-30.249,22.859-30.249,22.859
		"/>
	<path id="Path_11_2_" fill="#F9E2CF" d="M164.29,454.14h184.398c6.778,0.02,12.269,5.51,12.288,12.289L324.075,589.34
		c-0.02,6.777-5.51,12.269-12.289,12.289H201.164c-6.778-0.021-12.268-5.512-12.288-12.289l-36.875-122.911
		C152.021,459.65,157.511,454.158,164.29,454.14z"/>
	<path id="Path_14_2_" fill="#806A68" d="M171.67,491.628c-0.614-1.805,28.872,98.343,28.872,98.343H310.56l28.872-100.147
		c0,0-16.592,22.122-53.466,17.206C249.091,502.112,234.962,445.531,171.67,491.628z"/>
</g>
<circle id="Ellipse_9_4_" fill="#F9E2CF" cx="69.367" cy="500" r="18.746"/>
<circle id="Ellipse_9_3_" fill="#F9E2CF" cx="461.869" cy="500" r="18.746"/>
<g>
	<g enable-background="new    ">
		<path fill="#664E4A" d="M777.613,478.304c-6.933,12.113-11.542,20.528-13.824,25.244l-10.887,23.29l-12.478,25.61
			c-0.652,1.465-4.078,9.105-10.277,22.926c-2.529,5.692-4.73,10.365-6.605,14.023c-1.061,2.197-1.795,3.742-2.203,4.635
			c-1.61,3.822-3.342,5.731-5.192,5.731c-1.934,0-3.786-1.991-5.556-5.976c-0.322-0.73-1.463-2.966-3.42-6.706l-2.447-5.121
			l-45.885-99.019l-2.808,60.425c-0.244,4.965-0.366,14.893-0.366,29.785c0,14.324,5.045,22.259,15.137,23.804
			c4.963,0.799,7.446,1.997,7.446,3.594c0,1.835-1.179,2.754-3.532,2.754c-1.543,0-3.044-0.082-4.505-0.244
			c-9.094-0.814-16.119-1.221-21.07-1.221c-5.928,0-11.612,0.366-17.052,1.099c-1.625,0.244-2.882,0.366-3.775,0.366
			c-2.438,0-3.654-0.875-3.654-2.624c0-1.351,0.977-2.227,2.93-2.625c5.939-1.385,10.09-4.152,12.451-8.307
			c2.359-4.154,3.784-11.24,4.272-21.257l1.709-35.428c1.221-25.653,1.831-41.862,1.831-48.622c0-14.496-1.913-25.227-5.737-32.19
			c-3.826-6.962-10.214-11.259-19.165-12.888c-2.441-0.396-3.662-1.393-3.662-2.987c0-1.751,1.017-2.628,3.05-2.628
			c0.732,0,2.073,0.082,4.026,0.244c1.137,0.164,3.902,0.244,8.295,0.244c6.668,0,10.899-0.08,12.688-0.244
			c1.869-0.244,3.374-0.366,4.515-0.366c3.496,0,6.424,2.563,8.783,7.69l1.343,2.808l50.875,109.741l6.224,12.573
			c0.893,2.117,1.543,3.174,1.951,3.174c0.488,0,1.097-0.772,1.829-2.321l1.465-3.3l1.097-2.443l57.323-122.913
			c1.221-2.605,2.135-4.215,2.745-4.826c0.61-0.609,1.688-0.915,3.235-0.915c0.65,0,2.439,0.164,5.369,0.488
			c1.057,0.082,2.399,0.122,4.026,0.122c5.125,0,9.233-0.162,12.325-0.488c1.465-0.08,2.644-0.162,3.538-0.244
			c1.627-0.08,2.441,0.715,2.441,2.386c0,1.511-0.814,2.467-2.441,2.863l-5.249,1.345c-4.15,0.979-7.061,3.524-8.728,7.641
			c-1.669,4.116-2.502,10.86-2.502,20.233l0.732,29.465l2.319,66.387l0.61,15.404c0,6.194,1.139,10.637,3.418,13.326
			c2.277,2.689,6.428,4.482,12.451,5.379c4.313,0.637,6.47,1.713,6.47,3.226c0,1.593-1.503,2.39-4.507,2.39
			c-0.893,0-1.91-0.042-3.046-0.122l-9.5-0.977c-3.168-0.326-6.578-0.488-10.233-0.488c-2.518,0-6.497,0.18-11.936,0.542
			c-8.446,0.452-13.319,0.679-14.618,0.679c-2.355,0-3.532-0.715-3.532-2.144c0-1.271,1.017-2.183,3.052-2.739
			c4.801-1.303,8.015-3.42,9.644-6.354c1.627-2.934,2.441-8.066,2.441-15.397l-0.488-19.917L777.613,478.304z"/>
		<path fill="#664E4A" d="M940.553,576.294c0,9.454,0.772,15.241,2.319,17.36c1.545,2.119,5.981,3.546,13.306,4.278
			c2.521,0.24,3.784,1.076,3.784,2.506c0,1.909-1.429,2.865-4.282,2.865c-0.896,0-3.017-0.204-6.361-0.61
			c-2.039-0.244-5.014-0.488-8.928-0.732l-9.665-0.488l-9.542,0.271c-6.035,0-10.071,0.136-12.11,0.408
			c-2.365,0.36-3.916,0.542-4.648,0.542c-1.877,0-2.813-0.675-2.813-2.025c0-1.589,1.343-2.583,4.028-2.979
			c6.836-0.977,11.169-2.79,13-5.439s2.747-8.335,2.747-17.056l0.122-5.257v-36.433c0-5.216-0.366-9.048-1.099-11.493
			s-2.523-5.909-5.371-10.392l-34.058-54.159l-4.15-6.725c-2.361-3.83-5.697-6.947-10.01-9.353
			c-4.314-2.403-8.587-3.606-12.817-3.606c-2.359,0-3.54-0.732-3.54-2.197c0-1.789,1.259-2.686,3.776-2.686
			c2.03,0,4.101,0.136,6.212,0.402c5.28,0.628,10.801,0.94,16.567,0.94c11.938,0,19.573-0.184,22.903-0.549
			c3.572-0.367,5.724-0.55,6.457-0.55c2.354,0,3.532,0.795,3.532,2.384c0,1.192-0.937,2.066-2.808,2.621
			c-5.453,1.631-8.179,4.402-8.179,8.316c0,2.119,1.759,6.03,5.279,11.737l3.439,5.871l25.662,40.352l1.597,2.445
			c0.736,1.143,1.474,1.713,2.21,1.713c0.893,0,1.743-0.568,2.556-1.705l1.217-1.829l17.65-26.808l5.967-9.505
			c5.68-9.018,8.52-15.069,8.52-18.157c0-5.442-5.127-9.383-15.381-11.82c-2.035-0.488-3.012-1.423-2.93-2.808
			c0.08-1.383,1.019-2.075,2.813-2.075c1.225,0,3.386,0.224,6.485,0.666c2.365,0.37,8.075,0.555,17.129,0.555
			c8.32,0,13.623-0.122,15.908-0.366c3.1-0.324,5.26-0.528,6.484-0.61c2.201-0.162,3.304,0.553,3.304,2.146
			c0,1.271-1.019,2.225-3.052,2.859c-7.244,2.365-13.266,6.93-18.066,13.692l-7.935,11.86l-29.663,44.256l-2.93,4.158
			c-3.094,4.402-4.639,8.437-4.639,12.103V576.294z"/>
		<path fill="#664E4A" d="M1275.953,448.763l3.906,29.297l0.366,3.052l-0.366,1.221c-0.408,0.732-1.019,1.141-1.831,1.221
			c-0.977,0.082-2.441-1.623-4.395-5.113c-15.231-26.619-35.883-39.931-61.948-39.931c-20.771,0-37.145,6.38-49.119,19.137
			c-11.974,12.756-17.961,30.186-17.961,52.286c0,25.433,6.658,46.215,19.976,62.344c13.317,16.128,30.445,24.192,51.38,24.192
			c12.219,0,24.233-3.264,36.043-9.794c11.811-6.531,19.997-14.448,24.56-23.755c2.115-4.325,3.742-6.53,4.883-6.612
			c1.301-0.08,1.953,0.696,1.953,2.333l-0.122,1.349l-0.488,2.7l-2.808,14.969l-0.488,2.209c-0.326,2.117-2.239,4.314-5.737,6.592
			c-18.799,11.963-39.511,17.944-62.134,17.944c-26.205,0-47.323-7.765-63.354-23.298c-16.033-15.534-24.048-35.986-24.048-61.359
			c0-25.372,8.299-46.456,24.9-63.248c16.6-16.792,37.432-25.19,62.494-25.19c17.17,0,32.956,3.866,47.36,11.597l4.883,2.563
			l1.953,0.854l2.074,0.732c0.406,0,1.018-0.324,1.833-0.977c1.793-1.301,3.016-1.953,3.668-1.953
			C1274.69,444.124,1275.545,445.671,1275.953,448.763z"/>
		<path fill="#664E4A" d="M1416.31,537.508h-44.189c-6.023,0-9.766,0.49-11.23,1.469s-3.418,4.24-5.859,9.784l-8.007,17.981
			c-3.615,8.235-5.421,14.353-5.421,18.347c0,3.833,0.956,6.606,2.868,8.319s5.677,3.18,11.292,4.402
			c2.441,0.477,3.702,1.431,3.784,2.859c0.08,1.349-1.055,2.023-3.408,2.023c-0.895,0-2.275-0.046-4.141-0.138l-11.69-0.687
			c-3.897-0.183-8.401-0.274-13.516-0.274c-2.354,0-4.181,0.058-5.478,0.172c-4.141,0.454-6.413,0.683-6.819,0.683
			c-2.191,0-3.288-0.752-3.288-2.255c0-1.335,0.692-2.21,2.075-2.628l4.517-1.345c1.627-0.488,3.824-2.462,6.592-5.924
			c2.766-3.46,5.045-7.065,6.836-10.812l3.54-8.063l62.744-139.383c1.057-2.441,2.237-3.664,3.54-3.664
			c1.301,0,2.399,1.183,3.296,3.546l52.49,134.472l2.686,6.602c3.824,9.861,6.998,15.995,9.521,18.398
			c2.521,2.403,7.648,4.299,15.381,5.684c2.521,0.477,3.742,1.471,3.662,2.979c-0.082,1.351-1.221,2.025-3.418,2.025
			c-0.732,0-2.279-0.082-4.639-0.244c-4.232-0.408-11.761-0.61-22.583-0.61c-11.313,0-18.393,0.244-21.24,0.732
			c-1.709,0.324-2.972,0.488-3.784,0.488c-2.117,0-3.174-0.835-3.174-2.502c0-1.271,1.017-2.106,3.052-2.503l3.784-0.856
			c4.068-0.814,6.104-3.588,6.104-8.318c0-4.321-2.483-12.924-7.446-25.808l-6.104-16.147c-1.709-4.484-3.052-7.073-4.028-7.768
			C1423.634,537.855,1420.866,537.508,1416.31,537.508z M1417.774,517.855l-19.165-48.34l-0.977-2.563
			c-0.977-2.604-2.035-3.946-3.174-4.028c-0.57-0.08-1.221,0.692-1.953,2.319l-23.804,52.856c-1.059,2.279-1.587,3.784-1.587,4.517
			c0,2.117,1.871,3.174,5.615,3.174l3.296,0.122h36.865c4.068,0,6.104-1.017,6.104-3.052c0-0.568-0.204-1.505-0.61-2.808
			L1417.774,517.855z"/>
		<path fill="#664E4A" d="M1558.619,453.138v48.253l0.122,2.315v3.168c0.324,2.193,2.634,3.29,6.929,3.29l10.455,0.244l4.011-0.122
			l14.346-0.244c7.453,0,12.884-1.118,16.288-3.356c3.403-2.238,5.551-6.083,6.443-11.536c0.334-1.953,1.169-2.93,2.508-2.93
			c1.583,0,2.293,1.259,2.131,3.774l-0.732,12.055c-0.082,1.543-0.122,4.019-0.122,7.427c0,9.499,0.162,15.545,0.488,18.142
			c0.162,1.543,0.244,2.68,0.244,3.41c0,1.949-0.753,2.922-2.257,2.922c-1.589,0-2.828-1.993-3.719-5.981
			c-0.973-4.313-2.027-7.242-3.16-8.789c-1.136-1.545-3.041-2.644-5.715-3.296c-5.431-1.383-13.412-2.075-23.947-2.075
			c-9.725,0-16.027,0.206-18.903,0.614s-4.477,1.349-4.801,2.821c-0.406,1.552-0.608,4.005-0.608,7.358v45.501
			c0,6.461,1.709,11.612,5.127,15.456c3.418,3.843,8.015,5.764,13.794,5.764c2.766,0,4.19,0.795,4.272,2.384
			c0.162,1.827-1.061,2.743-3.67,2.743c-1.795,0-4.281-0.182-7.461-0.542c-2.691-0.362-6.688-0.543-11.988-0.543l-8.439-0.136
			l-9.419,0.122c-2.041,0-4.812,0.162-8.317,0.488c-2.855,0.162-4.935,0.284-6.239,0.366c-2.365,0.08-3.548-0.633-3.548-2.144
			c0-1.271,1.261-2.183,3.784-2.739c5.207-1.141,8.747-3.34,10.62-6.602c1.871-3.26,2.808-8.884,2.808-16.872V463.696
			c0-7.744-1.263-13.692-3.784-17.851c-1.629-2.77-3.418-4.645-5.371-5.623s-5.331-1.671-10.132-2.079
			c-1.953-0.158-2.972-0.874-3.052-2.147c-0.164-2.067,1.465-3.102,4.883-3.102c1.057,0,3.58,0.204,7.568,0.61
			c7.242,0.732,19.489,1.099,36.743,1.099c15.381,0,25.269-0.122,29.663-0.366l16.968-0.854c7.324-0.324,12.043-0.69,14.16-1.099
			c1.545-0.324,2.888-0.488,4.028-0.488c1.789,0,2.686,0.94,2.686,2.817c0,0.98-0.204,2.329-0.61,4.043
			c-1.385,5.311-2.075,12.415-2.075,21.317c0,3.757-1.083,5.636-3.248,5.636c-1.249,0-1.957-1.017-2.123-3.052
			c-0.244-2.521-0.688-5.085-1.337-7.69c-1.055-4.15-2.373-6.815-3.954-7.995s-5.089-2.015-10.521-2.503l-14.354-1.465
			c-4.541-0.406-10.298-0.61-17.271-0.61c-9.083,0-14.717,0.59-16.906,1.769C1559.714,445.24,1558.619,448.265,1558.619,453.138z"/>
		<path fill="#664E4A" d="M1712.647,453.684v49.25c0,3.757,0.346,6.025,1.037,6.8c0.691,0.776,2.787,1.163,6.287,1.163h18.799
			c8.545,0,15.299-0.488,20.264-1.465c4.395-0.895,7.242-2.075,8.545-3.54c1.301-1.465,2.481-4.883,3.54-10.254
			c0.416-2.033,1.455-3.01,3.12-2.93c1.581,0.082,2.373,1.179,2.373,3.288c0,0.568-0.046,1.461-0.136,2.678
			c-0.725,7.876-1.085,15.061-1.085,21.554c0,4.951,0.244,9.862,0.732,14.734c0.162,1.623,0.244,2.8,0.244,3.53
			c0,2.029-0.792,3.044-2.373,3.044c-1.747,0-2.788-0.895-3.12-2.686l-0.73-3.418c-0.977-5.451-2.926-9.155-5.848-11.108
			c-2.924-1.953-7.878-2.93-14.86-2.93h-26.922c-3.979,0-6.64,0.408-7.979,1.223c-1.341,0.816-2.011,2.447-2.011,4.893l0.122,4.034
			v45c0,6.929,1.238,11.249,3.718,12.962c2.478,1.713,8.754,2.567,18.833,2.567c31.935,0,52.454-7.202,61.556-21.606
			c0.917-1.383,1.835-2.115,2.752-2.197c1.501-0.08,2.253,0.973,2.253,3.162c0,5.272-2.972,11.559-8.911,18.856
			c-7.162,8.759-16.195,13.138-27.1,13.138c-2.361,0-5.535-0.164-9.521-0.488c-15.545-1.465-28.402-2.197-38.574-2.197
			c-14.242,0-24.292,0.488-30.151,1.465c-3.094,0.568-5.209,0.854-6.348,0.854c-2.605,0-3.906-0.875-3.906-2.626
			c0-1.354,1.057-2.311,3.174-2.867l4.639-1.345c5.859-1.629,8.789-7.336,8.789-17.116l0.122-7.946V467.852
			c0-11.654-1.282-19.499-3.845-23.535c-2.564-4.034-7.55-6.052-14.954-6.052c-2.361,0-3.54-0.755-3.54-2.27
			c0-2.229,1.831-3.346,5.493-3.346c2.033,0,4.761,0.204,8.179,0.61c11.637,1.303,25.635,1.953,41.992,1.953
			c9.928,0,18.717-0.162,26.367-0.488l17.334-0.854c4.801-0.162,7.73-0.324,8.789-0.488c2.197-0.324,3.824-0.488,4.883-0.488
			c2.686,0,4.028,1.177,4.028,3.526c0,0.73-0.122,1.663-0.366,2.799c-0.244,1.137-0.57,4.379-0.977,9.73l-0.488,7.176
			c-0.416,4.703-0.83,7.645-1.245,8.819c-0.416,1.175-1.328,1.805-2.737,1.885c-1.577,0.082-2.365-1.139-2.365-3.662v-3.174
			c0-2.604-0.488-5.085-1.463-7.446c-1.543-3.662-4.671-6.104-9.382-7.324c-4.712-1.221-13.363-1.831-25.954-1.831h-19.13
			c-5.038,0-8.288,0.633-9.749,1.899C1713.378,446.558,1712.647,449.354,1712.647,453.684z"/>
	</g>
</g>
<g>
	<path fill="#F9E2CF" d="M123.939,588.84c1.658,2.326,2.723,4.533,3.196,6.622l0.658,2.923c0.053,0.258,0.148,0.484,0.288,0.681
		c0.186,0.261,0.48,0.443,0.884,0.55l0.717,0.177c0.133,0.004,0.262,0.092,0.386,0.267c0.408,0.527,0.07,1.179-1.017,1.953
		c-0.37,0.264-1.366,1.188-2.991,2.771l-2.986,2.916c-0.64,0.62-1.047,0.992-1.22,1.116c-0.674,0.48-1.177,0.487-1.508,0.023
		c-0.252-0.354,0.018-1.082,0.812-2.183c1.799-2.46,2.609-5.431,2.428-8.913s-1.321-6.697-3.422-9.644
		c-1.668-2.341-3.754-3.803-6.255-4.39c-2.501-0.586-4.786-0.142-6.853,1.332c-1.828,1.304-3.042,2.938-3.642,4.905
		c-0.497,1.695-0.631,3.257-0.403,4.682c0.228,1.425,1.127,4.688,2.697,9.79c3.097,9.904,1.649,16.993-4.345,21.267
		c-4.062,2.896-8.438,3.787-13.13,2.675c-4.692-1.113-8.688-3.984-11.989-8.614c-1.193-1.674-2.267-3.687-3.223-6.037
		c-0.956-2.352-1.451-4.22-1.487-5.604c-0.018-0.577,0.073-1.035,0.273-1.375c0.201-0.339,0.816-1.073,1.848-2.202
		c0.142-0.168,0.938-1.144,2.385-2.93c1.553-1.961,2.743-3.234,3.569-3.823c0.652-0.465,1.125-0.468,1.419-0.01
		c0.262,0.414-0.019,1.149-0.844,2.206c-2.146,2.707-3.24,5.971-3.278,9.79c-0.039,3.82,0.993,7.204,3.095,10.151
		c2.132,2.991,4.817,4.894,8.056,5.707c3.238,0.814,6.119,0.321,8.643-1.478c2.415-1.722,3.768-4.127,4.059-7.216
		c0.152-1.583-0.652-5.265-2.413-11.048c-1.807-5.98-2.438-10.679-1.893-14.096c0.545-3.417,2.392-6.247,5.542-8.493
		c3.518-2.508,7.318-3.243,11.401-2.203C117.48,582.126,120.994,584.711,123.939,588.84z"/>
	<path fill="#F9E2CF" d="M113.325,650.224c-1.292,1.39-2.004,2.46-2.137,3.212c-0.134,0.752,0.224,1.65,1.075,2.696l1.213,1.4
		c0.615,0.75,0.726,1.315,0.334,1.698c-0.321,0.307-0.737,0.224-1.246-0.25c-0.334-0.311-0.929-0.947-1.787-1.911
		c-0.487-0.536-1.153-1.196-1.996-1.979l-1.851-1.782l-2.256-1.877c-0.41-0.346-0.741-0.599-0.993-0.76
		c-0.564-0.415-0.944-0.713-1.141-0.896c-0.529-0.492-0.626-0.918-0.291-1.279c0.28-0.301,0.651-0.348,1.115-0.141l0.721,0.342
		c0.825,0.367,1.604,0.4,2.339,0.1c0.734-0.3,1.646-1.036,2.734-2.207l11.867-12.77c1.506-1.621,2.329-2.821,2.47-3.6
		c0.141-0.779-0.307-1.65-1.343-2.613c-0.743-0.69-0.963-1.18-0.659-1.467c0.268-0.25,1.036-0.071,2.302,0.534
		c1.444,0.65,3.42,1.32,5.926,2.009l2.242,0.718c0.236,0.256,0.145,0.609-0.273,1.059L113.325,650.224z M141.197,616.556
		c0.472,0.438,0.588,1.279,0.35,2.521l-0.333,1.777c-0.059,0.458-0.189,0.796-0.39,1.012c-0.4,0.47-1.319,0.788-2.756,0.954
		s-2.361,0.057-2.774-0.327c-0.393-0.365-0.549-1.242-0.468-2.631c0.082-1.39,0.333-2.31,0.752-2.762
		c0.42-0.452,1.363-0.747,2.829-0.886S140.803,616.19,141.197,616.556z"/>
	<path fill="#F9E2CF" d="M148.577,651.956c5.303-1.639,9.572-1.419,12.806,0.658c3.593,2.308,5.489,5.605,5.686,9.893
		c0.137,2.947-1.122,6.49-3.779,10.627l-5.178,8.063l-0.684,0.99l-0.938,1.684c-0.707,1.644-0.319,3.115,1.162,4.415l1.285,1.111
		c0.55,0.478,0.723,0.898,0.521,1.264c-0.288,0.496-0.812,0.5-1.573,0.012c-0.247-0.159-0.659-0.478-1.237-0.957
		c-0.673-0.578-2.007-1.507-4-2.787l-3.392-2.035l-1.276-0.82l-1.018-0.559l-0.404-0.405c-0.098-0.193-0.065-0.417,0.098-0.67
		c0.222-0.347,0.565-0.436,1.029-0.269l1.184,0.38c1.042,0.353,2.01-0.166,2.903-1.557l7.454-11.606
		c2.002-3.118,2.827-5.986,2.474-8.604c-0.354-2.618-1.857-4.78-4.513-6.486c-1.869-1.2-3.882-1.715-6.041-1.548
		c-2.159,0.169-3.692,0.96-4.601,2.375l-8.258,12.859l-0.617,1.034l-1.05,1.709c-1.102,1.962-0.206,3.999,2.688,6.112
		c0.697,0.546,0.912,1.025,0.646,1.439c-0.266,0.415-0.658,0.456-1.174,0.125c-0.382-0.246-0.914-0.678-1.595-1.297
		c-0.394-0.325-1.433-1.028-3.117-2.11c-3.571-2.293-5.738-3.613-6.5-3.957c-0.746-0.37-1.22-0.62-1.422-0.75
		c-0.427-0.273-0.51-0.589-0.25-0.943c0.2-0.263,0.555-0.345,1.063-0.248c1.405,0.333,2.491,0.333,3.258,0.002
		s1.569-1.146,2.404-2.446l9.766-15.207c1.022-1.592,1.526-2.797,1.512-3.614c-0.015-0.816-0.549-1.564-1.605-2.242l-1.47-0.896
		c-0.202-0.13-0.353-0.292-0.45-0.485c-0.143-0.222-0.14-0.448,0.008-0.679c0.208-0.322,0.64-0.354,1.298-0.095
		c1.677,0.696,3.421,1.167,5.233,1.41l2.348,0.271c0.912,0.109,1.487,0.178,1.725,0.203c0.429,0.022,0.757,0.105,0.981,0.25
		c0.404,0.26,0.375,0.701-0.088,1.323c-0.253,0.345-0.539,0.765-0.856,1.259L148.577,651.956z"/>
	<path fill="#F9E2CF" d="M201.582,672.568c2.133,0.848,3.93,1.874,5.39,3.078c1.46,1.204,2.054,2.148,1.782,2.833l-0.481,1.102
		l-0.864,2.931c-0.523,1.315-1.098,1.877-1.724,1.685c-0.288-0.085-0.496-0.594-0.623-1.525c-0.227-1.737-1.068-3.498-2.522-5.283
		c-1.454-1.784-3.06-3.027-4.817-3.726c-2.426-0.965-4.847-0.645-7.263,0.962c-2.417,1.607-4.318,4.156-5.707,7.648
		c-1.646,4.137-1.855,8.105-0.628,11.907c1.227,3.801,3.548,6.38,6.965,7.739c2.748,1.093,5.896,1.038,9.442-0.166
		c0.438-0.142,0.803-0.169,1.093-0.082c0.401,0.102,0.524,0.351,0.367,0.745c-0.216,0.543-1.13,1.108-2.743,1.696
		c-4.175,1.54-8.419,1.451-12.735-0.265c-3.969-1.578-6.712-4.341-8.23-8.287c-1.519-3.947-1.43-8.051,0.264-12.313
		c1.892-4.756,5.082-8.172,9.569-10.246C192.604,670.926,197.092,670.781,201.582,672.568z"/>
	<path fill="#F9E2CF" d="M222.852,693.609l-0.213,0.855c-0.9,4.475-0.419,8.485,1.444,12.032c1.863,3.548,4.604,5.685,8.221,6.413
		c2.857,0.575,6.221-0.082,10.093-1.971c0.241-0.115,0.456-0.167,0.645-0.156c0.372,0.048,0.514,0.293,0.425,0.735
		c-0.157,0.781-1.296,1.703-3.416,2.767c-3.937,1.972-7.802,2.575-11.596,1.812c-4.266-0.858-7.518-3.199-9.757-7.022
		c-2.24-3.822-2.877-8.126-1.915-12.909c0.916-4.547,3.208-8.227,6.877-11.037c3.67-2.811,7.506-3.813,11.51-3.008
		c4.37,0.88,7.497,3.402,9.382,7.565c0.449,1.017,0.847,2.35,1.196,3.999c0.348,1.649,0.462,2.774,0.341,3.376
		c-0.174,0.864-1.112,1.124-2.816,0.781l-2.901-0.625l-2.658-0.616L222.852,693.609z M223.522,691.497l13.306,2.678
		c2.067,0.416,3.185,0.206,3.354-0.632c0.411-2.041-0.091-4.116-1.504-6.225c-1.414-2.108-3.154-3.371-5.221-3.787
		c-2.146-0.433-4.104,0.065-5.875,1.492C225.81,686.45,224.457,688.609,223.522,691.497z"/>
	<path fill="#F9E2CF" d="M318.16,713.071l-2.83,0.55l-4.289,0.813l-5.871,1.266l-7.447,1.554c-1.932,0.54-3.343,0.902-4.231,1.088
		c-0.653,0.136-1.026-0.019-1.119-0.465c-0.082-0.392,0.503-1.768,1.757-4.127c3.954-7.445,6.921-15.018,8.9-22.719
		s2.514-13.731,1.604-18.092c-0.594-2.845-1.824-4.918-3.69-6.218c-1.867-1.3-4.12-1.675-6.758-1.124
		c-3.581,0.747-6.519,2.803-8.816,6.167l-0.722,1.049c-0.228,0.348-0.495,0.566-0.803,0.658c-0.491,0.13-0.779-0.07-0.862-0.601
		c-0.155-1.007,0.537-2.654,2.077-4.945c2.631-3.858,6.206-6.259,10.727-7.202c3.528-0.735,6.631-0.3,9.312,1.307
		c2.68,1.607,4.358,4.029,5.033,7.267c0.648,3.107,0.321,7.235-0.982,12.384c-1.481,5.867-3.417,11.652-5.807,17.354l-3.189,7.695
		l-0.625,1.52c-0.356,0.783-0.493,1.37-0.412,1.762c0.207,0.992,3.464,0.83,9.772-0.486c3.429-0.715,6.003-1.599,7.723-2.651
		c1.72-1.053,2.927-2.468,3.621-4.246c0.319-0.829,0.685-1.3,1.098-1.414c0.465-0.124,0.725,0.014,0.781,0.412
		c0.049,0.235,0.002,0.532-0.141,0.89c-0.21,0.564-0.534,1.493-0.973,2.787C320.176,707.77,319.231,710.36,318.16,713.071z"/>
	<path fill="#F9E2CF" d="M334.955,647.171c4.451-2.138,9.231-1.555,14.341,1.746c5.109,3.302,9.401,8.571,12.877,15.81
		c3.637,7.574,5.183,14.555,4.638,20.942c-0.545,6.387-3.056,10.654-7.532,12.804c-5.029,2.415-10.063,2.229-15.104-0.56
		c-5.04-2.787-9.257-7.716-12.652-14.785c-2.193-4.568-3.614-9.33-4.262-14.287c-0.647-4.955-0.41-9.286,0.713-12.991
		C329.235,651.694,331.562,648.8,334.955,647.171z M334.268,652.476c-2.951,1.417-4.528,4.22-4.731,8.408s1.016,9.031,3.655,14.527
		c3.493,7.273,7.807,12.801,12.944,16.581c5.137,3.781,9.625,4.75,13.463,2.906c3.214-1.543,4.883-4.508,5.006-8.895
		c0.123-4.387-1.308-9.688-4.294-15.905c-3.412-7.104-7.568-12.316-12.468-15.635C342.943,651.145,338.418,650.483,334.268,652.476z
		"/>
	<path fill="#F9E2CF" d="M411.37,663.999l-2.316,1.717l-3.518,2.584l-4.75,3.676l-6.048,4.614c-1.511,1.32-2.627,2.257-3.348,2.807
		c-0.531,0.405-0.934,0.427-1.21,0.063c-0.243-0.317-0.308-1.811-0.196-4.48c0.355-8.422-0.236-16.534-1.773-24.335
		c-1.538-7.802-3.657-13.473-6.359-17.014c-1.763-2.311-3.767-3.649-6.012-4.017c-2.244-0.367-4.438,0.267-6.582,1.901
		c-2.908,2.219-4.671,5.342-5.292,9.368l-0.199,1.257c-0.056,0.412-0.203,0.726-0.441,0.94c-0.387,0.329-0.732,0.272-1.036-0.17
		c-0.575-0.841-0.662-2.626-0.261-5.357c0.708-4.615,2.898-8.324,6.57-11.125c2.865-2.187,5.853-3.132,8.964-2.84
		c3.111,0.294,5.67,1.755,7.676,4.384c1.926,2.523,3.411,6.389,4.457,11.596c1.195,5.932,1.945,11.986,2.25,18.161l0.443,8.318
		l0.091,1.641c0.017,0.86,0.146,1.449,0.389,1.767c0.615,0.806,3.483-0.746,8.606-4.654c2.785-2.125,4.726-4.033,5.823-5.726
		c1.097-1.691,1.575-3.488,1.434-5.393c-0.07-0.885,0.057-1.468,0.381-1.749c0.366-0.313,0.659-0.301,0.882,0.034
		c0.146,0.191,0.231,0.479,0.256,0.864c0.054,0.6,0.162,1.577,0.325,2.934C410.901,658.347,411.166,661.092,411.37,663.999z"/>
	<path fill="#F9E2CF" d="M448.012,626.588l-1.914,2.156l-2.912,3.252l-3.893,4.573l-4.97,5.759c-1.207,1.604-2.107,2.749-2.7,3.436
		c-0.436,0.505-0.826,0.608-1.171,0.311c-0.303-0.261-0.674-1.709-1.112-4.344c-1.384-8.316-3.63-16.134-6.738-23.452
		s-6.348-12.433-9.72-15.342c-2.201-1.899-4.437-2.798-6.709-2.696c-2.272,0.103-4.289,1.174-6.05,3.215
		c-2.39,2.769-3.474,6.188-3.253,10.255l0.063,1.271c0.03,0.414-0.049,0.751-0.238,1.011c-0.311,0.401-0.661,0.417-1.048,0.047
		c-0.736-0.705-1.188-2.435-1.356-5.189c-0.255-4.663,1.125-8.742,4.142-12.238c2.354-2.729,5.084-4.269,8.189-4.621
		c3.105-0.353,5.91,0.552,8.414,2.712c2.403,2.074,4.652,5.551,6.746,10.432c2.389,5.56,4.368,11.33,5.935,17.311l2.143,8.05
		l0.427,1.587c0.193,0.839,0.441,1.388,0.744,1.649c0.767,0.662,3.256-1.446,7.465-6.325c2.289-2.651,3.796-4.918,4.521-6.799
		s0.825-3.738,0.295-5.573c-0.25-0.851-0.246-1.448,0.013-1.789c0.294-0.381,0.583-0.431,0.871-0.148
		c0.182,0.157,0.325,0.422,0.429,0.793c0.176,0.575,0.483,1.51,0.921,2.805C446.391,621.153,447.214,623.784,448.012,626.588z"/>
</g>
<circle fill="none" cx="-990.369" cy="499" r="166.498"/>
<text transform="matrix(0.7152 -0.6989 0.6989 0.7152 -1131.8228 404.4333)"><tspan x="0" y="0" fill="#F9E2CF" font-family="'GoudyOldStyleT-Regular'" font-size="81.7598">M</tspan><tspan x="69.718" y="1.87" fill="#F9E2CF" font-family="'GoudyOldStyleT-Regular'" font-size="81.7598" rotate="20.02">Y</tspan><tspan x="115.152" y="20.111" fill="#F9E2CF" font-family="'GoudyOldStyleT-Regular'" font-size="81.7598" rotate="32.247"> </tspan><tspan x="134.543" y="29.874" fill="#F9E2CF" font-family="'GoudyOldStyleT-Regular'" font-size="81.7598" rotate="45.914">C</tspan><tspan x="174.747" y="71.758" fill="#F9E2CF" font-family="'GoudyOldStyleT-Regular'" font-size="81.7598" rotate="65.165">A</tspan><tspan x="196.91" y="121.913" fill="#F9E2CF" font-family="'GoudyOldStyleT-Regular'" font-size="81.7598" rotate="81.88">F</tspan><tspan x="203.261" y="164.43" fill="#F9E2CF" font-family="'GoudyOldStyleT-Regular'" font-size="81.7598" rotate="97.419">E</tspan></text>
<path fill="none" d="M-1206.441,538.5c0,93.252,112.469,180.673,220.405,180.673c107.015,0,213.358-100.262,213.358-180.673"/>
<text transform="matrix(0.5805 0.8142 -0.8142 0.5805 -1189.5757 604.178)"><tspan x="0" y="0" fill="#F9E2CF" font-family="'GoudyOldStyleT-Regular'" font-size="82">S</tspan><tspan x="52.3" y="-2.277" fill="#F9E2CF" font-family="'GoudyOldStyleT-Regular'" font-size="82" rotate="-11.613">i</tspan><tspan x="83.771" y="-8.701" fill="#F9E2CF" font-family="'GoudyOldStyleT-Regular'" font-size="82" rotate="-21.803">n</tspan><tspan x="135.164" y="-31.029" fill="#F9E2CF" font-family="'GoudyOldStyleT-Regular'" font-size="82" rotate="-32.824">c</tspan><tspan x="171.039" y="-55.127" fill="#F9E2CF" font-family="'GoudyOldStyleT-Regular'" font-size="82" rotate="-43.132">e</tspan><tspan x="202.518" y="-86.541" fill="#F9E2CF" font-family="'GoudyOldStyleT-Regular'" font-size="82" rotate="-53.019"> </tspan><tspan x="222.177" y="-113.194" fill="#F9E2CF" font-family="'GoudyOldStyleT-Regular'" font-size="82" rotate="-66.297">2</tspan><tspan x="242.158" y="-163.1" fill="#F9E2CF" font-family="'GoudyOldStyleT-Regular'" font-size="82" rotate="-80.162">0</tspan><tspan x="249.893" y="-214.923" fill="#F9E2CF" font-family="'GoudyOldStyleT-Regular'" font-size="82" rotate="-91.858">2</tspan><tspan x="247.099" y="-267.335" fill="#F9E2CF" font-family="'GoudyOldStyleT-Regular'" font-size="82" rotate="-103.721">2</tspan></text>
<text transform="matrix(0.6531 0.7572 -0.7572 0.6531 -535.3184 620.2092)" fill="#F9E2CF" font-family="'GoudyOldStyleT-Regular'" font-size="79.6878">S</text>
<text transform="matrix(0.6531 0.7572 -0.7572 0.6531 -501.251 656.8762)" fill="#F9E2CF" font-family="'GoudyOldStyleT-Regular'" font-size="79.6878">i</text>
<text transform="matrix(0.6531 0.7572 -0.7572 0.6531 -477.3818 676.3108)" fill="#F9E2CF" font-family="'GoudyOldStyleT-Regular'" font-size="79.6878">n</text>
<text transform="matrix(0.6531 0.7572 -0.7572 0.6531 -429.3828 701.6809)" fill="#F9E2CF" font-family="'GoudyOldStyleT-Regular'" font-size="79.6878">c</text>
<text transform="matrix(0.6531 0.7572 -0.7572 0.6531 -389.3413 714.4338)" fill="#F9E2CF" font-family="'GoudyOldStyleT-Regular'" font-size="79.6878">e</text>
<text transform="matrix(0.6531 0.7572 -0.7572 0.6531 -346.0151 719.4055)" fill="#F9E2CF" font-family="'GoudyOldStyleT-Regular'" font-size="79.6878"> </text>
<text transform="matrix(0.6531 0.7572 -0.7572 0.6531 -314.5059 718.009)" fill="#F9E2CF" font-family="'GoudyOldStyleT-Regular'" font-size="79.6878">2</text>
<text transform="matrix(0.6531 0.7572 -0.7572 0.6531 -264.8989 703.6985)" fill="#F9E2CF" font-family="'GoudyOldStyleT-Regular'" font-size="79.6878">0</text>
<text transform="matrix(0.6531 0.7572 -0.7572 0.6531 -220.4604 679.4866)" fill="#F9E2CF" font-family="'GoudyOldStyleT-Regular'" font-size="79.6878">2</text>
<text transform="matrix(0.6531 0.7572 -0.7572 0.6531 -181.3188 647.011)" fill="#F9E2CF" font-family="'GoudyOldStyleT-Regular'" font-size="79.6878">2</text>
<g>
	<g>
		<path fill="#F9E2CF" d="M268.623,381.856c0,0,0.332,0.126,0.902,0.482c0.553,0.364,1.383,0.932,2.279,1.843
			c0.919,0.896,1.884,2.14,2.79,3.722c0.482,0.786,0.843,1.675,1.27,2.626c0.351,0.958,0.712,1.997,0.965,3.097
			c0.314,1.106,0.43,2.264,0.625,3.486c0.086,1.201,0.196,2.482,0.146,3.759c-0.007,0.323-0.013,0.648-0.02,0.976l-0.021,0.493
			l-0.011,0.248c0.049-0.222-0.068,0.337-0.057,0.288l-0.003,0.027l-0.006,0.055l-0.013,0.109c-0.068,0.582-0.137,1.171-0.207,1.766
			c-0.032,1.064-0.54,2.707-0.967,4.23c-0.21,0.81-0.497,1.453-0.782,2.161c-0.3,0.687-0.561,1.417-0.913,2.084
			c-0.72,1.322-1.442,2.7-2.328,3.907c-0.839,1.285-1.779,2.396-2.724,3.548c-0.95,1.064-1.941,2.155-2.904,3.106
			c-1.954,1.968-3.879,3.692-5.508,5.317c-1.636,1.632-3.088,3.136-4.095,4.646c-0.313,0.368-0.503,0.761-0.72,1.146l-0.333,0.577
			c-0.135,0.186-0.225,0.384-0.302,0.585c-0.178,0.403-0.354,0.804-0.529,1.2l-0.069,0.149l-0.017,0.038
			c-0.028,0.16,0.028-0.197,0.02-0.149l-0.007,0.026l-0.028,0.105l-0.113,0.42c-0.081,0.279-0.161,0.555-0.241,0.83
			c-0.082,0.274-0.163,0.547-0.244,0.817c-0.079,0.269-0.11,0.439-0.169,0.663c-0.112,0.432-0.224,0.855-0.333,1.273
			c-0.175,0.906-0.364,1.806-0.453,2.67c-0.487,3.479-0.18,6.586,0.271,8.816c0.244,1.102,0.471,2.014,0.689,2.61
			c0.21,0.601,0.347,0.933,0.347,0.933s-0.328-0.14-0.889-0.506c-0.542-0.377-1.363-0.953-2.253-1.861
			c-0.906-0.899-1.872-2.129-2.795-3.695c-0.932-1.564-1.731-3.491-2.3-5.694c-0.317-1.104-0.463-2.268-0.657-3.495
			c-0.072-0.633-0.086-1.299-0.122-1.972c-0.012-0.325-0.034-0.71-0.035-0.996c-0.001-0.282-0.001-0.566-0.002-0.853
			c0.001-0.286,0.003-0.574,0.004-0.864l0.01-0.435l0.003-0.109v-0.027c-0.006,0.029,0.054-0.346,0.031-0.203l0.01-0.067
			l0.039-0.271c0.114-0.731,0.229-1.473,0.346-2.222c0.084-0.77,0.376-1.474,0.601-2.22c0.24-0.741,0.478-1.501,0.826-2.186
			c1.221-2.925,3.08-5.393,4.93-7.587c1.878-2.208,3.82-4.083,5.575-5.866c0.925-0.892,1.71-1.754,2.559-2.604
			c0.747-0.859,1.576-1.683,2.224-2.531c0.739-0.827,1.3-1.688,1.929-2.523c0.313-0.417,0.534-0.865,0.811-1.292
			c0.25-0.428,0.593-0.87,0.749-1.246c0.395-0.808,0.846-1.413,1.256-2.697c0.208-0.563,0.415-1.118,0.619-1.667l0.038-0.103
			l0.019-0.052l0.01-0.025c0.015-0.065-0.098,0.475-0.047,0.235l0.052-0.182l0.104-0.363l0.228-0.719
			c0.353-0.958,0.492-1.89,0.767-2.813c0.172-0.909,0.379-1.816,0.475-2.682c0.266-1.745,0.335-3.387,0.265-4.867
			c-0.058-1.482-0.23-2.819-0.474-3.918c-0.249-1.093-0.487-2-0.722-2.587C268.773,382.182,268.623,381.856,268.623,381.856z"/>
	</g>
	<g>
		<path fill="#F9E2CF" d="M208.37,397.101c0,0,0.285,0.066,0.782,0.299c0.481,0.244,1.217,0.623,2.023,1.287
			c0.826,0.65,1.715,1.583,2.575,2.804c0.456,0.605,0.812,1.304,1.229,2.051c0.357,0.756,0.719,1.581,1.003,2.462
			c0.332,0.884,0.499,1.816,0.736,2.806c0.15,0.972,0.311,2.013,0.35,3.055c0.014,0.264,0.028,0.528,0.042,0.795l0.01,0.402
			l0.005,0.203c0.039-0.226-0.052,0.336-0.043,0.286v0.021l-0.002,0.043l-0.003,0.087c-0.019,0.464-0.038,0.935-0.057,1.409
			c0.045,0.813-0.273,2.242-0.565,3.533c-0.144,0.691-0.347,1.227-0.548,1.825c-0.213,0.58-0.396,1.194-0.653,1.76
			c-0.528,1.12-1.063,2.287-1.732,3.311c-0.634,1.091-1.346,2.031-2.07,3.005c-0.721,0.896-1.484,1.815-2.213,2.607
			c-1.491,1.642-2.946,3.054-4.15,4.33c-1.209,1.287-2.274,2.415-2.982,3.499c-0.225,0.271-0.362,0.545-0.523,0.817
			c-0.141,0.276-0.375,0.535-0.473,0.825c-0.134,0.289-0.267,0.575-0.398,0.858l-0.053,0.108l-0.013,0.026
			c-0.021,0.159,0.02-0.202,0.014-0.156l-0.005,0.021l-0.021,0.084l-0.085,0.334c-0.053,0.223-0.124,0.442-0.186,0.661
			c-0.203,0.717-0.399,1.415-0.59,2.09c-0.146,0.689-0.299,1.379-0.383,2.041c-0.433,2.667-0.282,5.11,0.017,6.905
			c0.165,0.883,0.314,1.632,0.475,2.12c0.152,0.491,0.252,0.77,0.252,0.77s-0.283-0.076-0.774-0.319
			c-0.474-0.254-1.202-0.64-2.003-1.302c-0.816-0.65-1.704-1.572-2.577-2.777c-0.879-1.205-1.671-2.721-2.284-4.482
			c-0.333-0.883-0.525-1.822-0.763-2.814c-0.101-0.517-0.149-1.066-0.217-1.621c-0.029-0.271-0.057-0.544-0.086-0.818l-0.058-0.675
			c-0.018-0.228-0.044-0.455-0.052-0.685l-0.02-0.344l-0.004-0.086l-0.001-0.022c-0.005,0.032,0.039-0.344,0.021-0.198l0.004-0.058
			l0.017-0.229c0.056-0.616,0.113-1.24,0.17-1.871c0.033-0.647,0.233-1.25,0.381-1.885c0.159-0.633,0.318-1.282,0.578-1.863
			c0.891-2.493,2.295-4.613,3.7-6.468c1.426-1.871,2.892-3.435,4.193-4.881c0.693-0.73,1.262-1.412,1.892-2.09
			c0.539-0.672,1.153-1.32,1.616-1.966c0.54-0.637,0.938-1.282,1.396-1.912c0.229-0.313,0.385-0.645,0.586-0.964
			c0.181-0.314,0.435-0.659,0.538-0.916c0.274-0.576,0.632-0.954,0.942-2.008c0.159-0.448,0.316-0.891,0.472-1.328l0.029-0.082
			l0.015-0.041l0.007-0.021c0.012-0.064-0.077,0.481-0.037,0.243l0.039-0.14l0.079-0.275l0.177-0.55
			c0.465-1.461,0.806-2.869,1.004-4.202c0.466-2.675,0.341-5.093,0.033-6.874c-0.167-0.875-0.327-1.621-0.5-2.102
			C208.481,397.373,208.37,397.101,208.37,397.101z"/>
	</g>
	<g>
		<path fill="#F9E2CF" d="M317.563,396.734c0,0,0.284,0.066,0.782,0.299c0.481,0.244,1.217,0.623,2.023,1.287
			c0.826,0.65,1.715,1.583,2.575,2.804c0.456,0.605,0.812,1.304,1.229,2.052c0.357,0.755,0.719,1.581,1.003,2.461
			c0.332,0.884,0.499,1.816,0.736,2.806c0.15,0.972,0.311,2.013,0.35,3.055c0.014,0.264,0.028,0.528,0.042,0.795l0.01,0.402
			l0.005,0.203c0.039-0.225-0.052,0.336-0.043,0.286l-0.001,0.021l-0.001,0.043l-0.003,0.088c-0.019,0.464-0.038,0.934-0.057,1.408
			c0.045,0.813-0.273,2.242-0.565,3.533c-0.144,0.691-0.347,1.228-0.548,1.825c-0.213,0.58-0.396,1.195-0.653,1.76
			c-0.528,1.12-1.063,2.287-1.732,3.312c-0.634,1.09-1.346,2.03-2.069,3.004c-0.721,0.896-1.484,1.815-2.213,2.607
			c-1.491,1.642-2.946,3.055-4.15,4.33c-1.209,1.287-2.274,2.416-2.982,3.499c-0.225,0.271-0.362,0.545-0.523,0.817
			c-0.141,0.276-0.375,0.536-0.473,0.826c-0.134,0.29-0.267,0.574-0.398,0.857l-0.053,0.108l-0.013,0.026
			c-0.021,0.159,0.02-0.201,0.014-0.156l-0.005,0.021l-0.021,0.084l-0.085,0.334c-0.053,0.223-0.124,0.442-0.186,0.66
			c-0.203,0.718-0.4,1.416-0.59,2.09c-0.146,0.689-0.299,1.378-0.383,2.041c-0.433,2.666-0.282,5.109,0.017,6.905
			c0.165,0.883,0.315,1.632,0.475,2.12c0.152,0.492,0.252,0.77,0.252,0.77s-0.283-0.076-0.774-0.318
			c-0.474-0.253-1.202-0.641-2.003-1.303c-0.816-0.65-1.704-1.57-2.577-2.777c-0.879-1.204-1.671-2.721-2.284-4.482
			c-0.333-0.883-0.526-1.822-0.763-2.813c-0.1-0.518-0.149-1.067-0.217-1.623c-0.029-0.271-0.057-0.543-0.086-0.817l-0.058-0.675
			c-0.017-0.228-0.043-0.456-0.052-0.685l-0.019-0.344l-0.004-0.086l-0.001-0.021c-0.005,0.03,0.039-0.345,0.021-0.199l0.004-0.058
			l0.018-0.229c0.056-0.616,0.112-1.24,0.169-1.871c0.033-0.646,0.233-1.25,0.381-1.885c0.159-0.632,0.318-1.282,0.578-1.863
			c0.891-2.493,2.295-4.613,3.7-6.468c1.426-1.872,2.892-3.435,4.193-4.882c0.693-0.729,1.262-1.412,1.892-2.089
			c0.539-0.673,1.153-1.321,1.616-1.966c0.54-0.638,0.937-1.281,1.396-1.911c0.229-0.314,0.385-0.646,0.586-0.965
			c0.181-0.314,0.435-0.658,0.538-0.916c0.274-0.575,0.632-0.953,0.942-2.008c0.159-0.447,0.317-0.891,0.473-1.328l0.029-0.082
			l0.015-0.041l0.007-0.021c0.012-0.064-0.077,0.482-0.037,0.243l0.039-0.138l0.079-0.276l0.177-0.549
			c0.465-1.461,0.806-2.87,1.004-4.203c0.467-2.674,0.341-5.092,0.033-6.874c-0.167-0.875-0.327-1.621-0.5-2.102
			C317.674,397.007,317.563,396.734,317.563,396.734z"/>
	</g>
</g>
<g>
	
		<text transform="matrix(1 0 0 1 -465.3384 894.0715)" fill="#F9E2CF" font-family="'GoudyOldStyleT-Regular'" font-size="79.6878" letter-spacing="3">Since 2022</text>
</g>
<g>
	<text transform="matrix(1 0 0 1 -476.25 853.5002)" fill="#F9E2CF" font-family="'GoudyOldStyleT-Regular'" font-size="79.6878">MY CAFE</text>
</g>
</svg>
